ISO-10303-21;
HEADER;
FILE_DESCRIPTION (( 'STEP AP214' ),
    '1' );
FILE_NAME ('2031-42T-SM-RPLF.STEP',
    '2025-02-10T04:57:46',
    ( 'LENOVO' ),
    ( '' ),
    'SwSTEP 2.0',
    'SolidWorks 2021',
    '' );
FILE_SCHEMA (( 'AUTOMOTIVE_DESIGN' ));
ENDSEC;

DATA;
#1 = DIRECTION ( 'NONE',  ( -0.000000000000000000, 0.000000000000000000, 1.000000000000000000 ) ) ;
#2 = PRESENTATION_LAYER_ASSIGNMENT (  '', '', ( #130 ) ) ;
#3 = DIRECTION ( 'NONE',  ( 1.000000000000000000, 0.000000000000000000, 0.000000000000000000 ) ) ;
#4 = EDGE_CURVE ( 'NONE', #481, #79, #303, .T. ) ;
#5 = DIRECTION ( 'NONE',  ( -1.000000000000000000, 0.000000000000000000, -0.000000000000000000 ) ) ;
#6 = AXIS2_PLACEMENT_3D ( 'NONE', #169, #334, #156 ) ;
#7 = CARTESIAN_POINT ( 'NONE',  ( -2.200000000000000178, 8.673617379884035472E-16, 2.649999999999999911 ) ) ;
#8 = CARTESIAN_POINT ( 'NONE',  ( -2.200000000000000178, 2.649999999999999911, 0.000000000000000000 ) ) ;
#9 = ADVANCED_FACE ( 'NONE', ( #115 ), #516, .T. ) ;
#10 = EDGE_CURVE ( 'NONE', #37, #87, #295, .T. ) ;
#11 = CARTESIAN_POINT ( 'NONE',  ( -1.690000000000000169, 2.650000000000000355, -2.649999999999999911 ) ) ;
#12 = ADVANCED_FACE ( 'NONE', ( #504 ), #118, .T. ) ;
#13 = CARTESIAN_POINT ( 'NONE',  ( -2.200000000000000178, 0.7685112277773215039, -2.649999999999999911 ) ) ;
#14 =( NAMED_UNIT ( * ) PLANE_ANGLE_UNIT ( ) SI_UNIT ( $, .RADIAN. ) );
#15 = DIRECTION ( 'NONE',  ( 1.000000000000000000, 0.000000000000000000, 0.000000000000000000 ) ) ;
#16 = DIRECTION ( 'NONE',  ( -0.000000000000000000, 0.000000000000000000, 1.000000000000000000 ) ) ;
#17 = CARTESIAN_POINT ( 'NONE',  ( 1.870000000000000329, 2.649999999999999911, 0.000000000000000000 ) ) ;
#18 = SURFACE_SIDE_STYLE ('',( #338 ) ) ;
#19 = EDGE_CURVE ( 'NONE', #87, #89, #485, .T. ) ;
#20 = CARTESIAN_POINT ( 'NONE',  ( 2.200000000000001066, 2.650000000000000355, -2.649999999999999911 ) ) ;
#21 = DIRECTION ( 'NONE',  ( 0.000000000000000000, 0.000000000000000000, 1.000000000000000000 ) ) ;
#22 = DIRECTION ( 'NONE',  ( -1.000000000000000000, -0.000000000000000000, -0.000000000000000000 ) ) ;
#23 = EDGE_CURVE ( 'NONE', #109, #461, #305, .T. ) ;
#24 = PRESENTATION_LAYER_ASSIGNMENT (  '', '', ( #244 ) ) ;
#25 = CARTESIAN_POINT ( 'NONE',  ( -1.690000000000000391, 8.673617379884035472E-16, 2.649999999999999911 ) ) ;
#26 = FILL_AREA_STYLE_COLOUR ( '', #170 ) ;
#27 = CARTESIAN_POINT ( 'NONE',  ( -1.690000000000000613, 5.300000000000000711, -1.881488772222678296 ) ) ;
#28 = AXIS2_PLACEMENT_3D ( 'NONE', #342, #452, #530 ) ;
#29 = DIRECTION ( 'NONE',  ( -1.000000000000000000, -0.000000000000000000, -0.000000000000000000 ) ) ;
#30 = CARTESIAN_POINT ( 'NONE',  ( 10.33081528017130779, 0.7685112277773217260, -2.649999999999999911 ) ) ;
#31 = DIRECTION ( 'NONE',  ( -1.000000000000000000, -0.000000000000000000, -0.000000000000000000 ) ) ;
#32 = DIRECTION ( 'NONE',  ( -0.000000000000000000, 1.224646799147352714E-16, 1.000000000000000000 ) ) ;
#33 = EDGE_CURVE ( 'NONE', #481, #109, #501, .T. ) ;
#34 =( NAMED_UNIT ( * ) SI_UNIT ( $, .STERADIAN. ) SOLID_ANGLE_UNIT ( ) );
#35 = MECHANICAL_DESIGN_GEOMETRIC_PRESENTATION_REPRESENTATION (  '', ( #130 ), #205 ) ;
#36 = FILL_AREA_STYLE ('',( #393 ) ) ;
#37 = VERTEX_POINT ( 'NONE', #13 ) ;
#38 = ORIENTED_EDGE ( 'NONE', *, *, #370, .T. ) ;
#39 = EDGE_CURVE ( 'NONE', #268, #460, #292, .T. ) ;
#40 = AXIS2_PLACEMENT_3D ( 'NONE', #528, #535, #196 ) ;
#41 = ADVANCED_FACE ( 'NONE', ( #137 ), #320, .F. ) ;
#42 = ORIENTED_EDGE ( 'NONE', *, *, #172, .T. ) ;
#43 = DIRECTION ( 'NONE',  ( 1.000000000000000000, 0.000000000000000000, 0.000000000000000000 ) ) ;
#44 = EDGE_CURVE ( 'NONE', #257, #268, #473, .T. ) ;
#45 =( NAMED_UNIT ( * ) SI_UNIT ( $, .STERADIAN. ) SOLID_ANGLE_UNIT ( ) );
#46 = DIRECTION ( 'NONE',  ( -1.000000000000000000, -0.000000000000000000, -0.000000000000000000 ) ) ;
#47 = CARTESIAN_POINT ( 'NONE',  ( -2.200000000000000178, 8.673617379884035472E-16, 2.649999999999999911 ) ) ;
#48 = AXIS2_PLACEMENT_3D ( 'NONE', #354, #31, #359 ) ;
#49 = ORIENTED_EDGE ( 'NONE', *, *, #19, .F. ) ;
#50 = ORIENTED_EDGE ( 'NONE', *, *, #187, .T. ) ;
#51 = FILL_AREA_STYLE ('',( #168 ) ) ;
#52 = ORIENTED_EDGE ( 'NONE', *, *, #97, .T. ) ;
#53 = ORIENTED_EDGE ( 'NONE', *, *, #44, .F. ) ;
#54 = ORIENTED_EDGE ( 'NONE', *, *, #172, .F. ) ;
#55 = ORIENTED_EDGE ( 'NONE', *, *, #19, .T. ) ;
#56 = DIRECTION ( 'NONE',  ( 0.000000000000000000, 0.000000000000000000, 1.000000000000000000 ) ) ;
#57 = ORIENTED_EDGE ( 'NONE', *, *, #140, .T. ) ;
#58 =( LENGTH_UNIT ( ) NAMED_UNIT ( * ) SI_UNIT ( .MILLI., .METRE. ) );
#59 = ORIENTED_EDGE ( 'NONE', *, *, #533, .F. ) ;
#60 = EDGE_CURVE ( 'NONE', #262, #87, #112, .T. ) ;
#61 = ORIENTED_EDGE ( 'NONE', *, *, #381, .T. ) ;
#62 = ORIENTED_EDGE ( 'NONE', *, *, #395, .F. ) ;
#63 = DIRECTION ( 'NONE',  ( -1.000000000000000000, -0.000000000000000000, -0.000000000000000000 ) ) ;
#64 = VERTEX_POINT ( 'NONE', #171 ) ;
#65 = ORIENTED_EDGE ( 'NONE', *, *, #339, .T. ) ;
#66 = ORIENTED_EDGE ( 'NONE', *, *, #349, .T. ) ;
#67 = VERTEX_POINT ( 'NONE', #161 ) ;
#68 = DIRECTION ( 'NONE',  ( 0.000000000000000000, -1.636531581110195409E-16, -1.000000000000000000 ) ) ;
#69 = VERTEX_POINT ( 'NONE', #20 ) ;
#70 = AXIS2_PLACEMENT_3D ( 'NONE', #515, #300, #545 ) ;
#71 = ORIENTED_EDGE ( 'NONE', *, *, #198, .F. ) ;
#72 = DIRECTION ( 'NONE',  ( -1.000000000000000000, -0.000000000000000000, -0.000000000000000000 ) ) ;
#73 = ORIENTED_EDGE ( 'NONE', *, *, #206, .F. ) ;
#74 = ORIENTED_EDGE ( 'NONE', *, *, #478, .F. ) ;
#75 = CARTESIAN_POINT ( 'NONE',  ( 10.33081528017130779, 5.300000000000000711, -1.881488772222677630 ) ) ;
#76 = ORIENTED_EDGE ( 'NONE', *, *, #193, .F. ) ;
#77 = EDGE_LOOP ( 'NONE', ( #486, #479, #71, #434 ) ) ;
#78 = ORIENTED_EDGE ( 'NONE', *, *, #10, .T. ) ;
#79 = VERTEX_POINT ( 'NONE', #199 ) ;
#80 = DIRECTION ( 'NONE',  ( 1.000000000000000000, 0.000000000000000000, 0.000000000000000000 ) ) ;
#81 = AXIS2_PLACEMENT_3D ( 'NONE', #111, #534, #404 ) ;
#82 = CARTESIAN_POINT ( 'NONE',  ( 10.33081528017130779, 0.7685112277773217260, 2.649999999999999911 ) ) ;
#83 = EDGE_LOOP ( 'NONE', ( #95, #283, #228, #438 ) ) ;
#84 = VERTEX_POINT ( 'NONE', #399 ) ;
#85 = CARTESIAN_POINT ( 'NONE',  ( 1.870000000000000329, 2.649999999999999911, 0.000000000000000000 ) ) ;
#86 = UNCERTAINTY_MEASURE_WITH_UNIT (LENGTH_MEASURE( 1.000000000000000082E-05 ), #58, 'distance_accuracy_value', 'NONE');
#87 = VERTEX_POINT ( 'NONE', #540 ) ;
#88 = DIRECTION ( 'NONE',  ( 0.000000000000000000, 1.000000000000000000, 0.000000000000000000 ) ) ;
#89 = VERTEX_POINT ( 'NONE', #541 ) ;
#90 = PRESENTATION_LAYER_ASSIGNMENT (  '', '', ( #332 ) ) ;
#91 = DIRECTION ( 'NONE',  ( -1.000000000000000000, 0.000000000000000000, -0.000000000000000000 ) ) ;
#92 = ADVANCED_FACE ( 'NONE', ( #138 ), #321, .T. ) ;
#93 = AXIS2_PLACEMENT_3D ( 'NONE', #233, #376, #411 ) ;
#94 = CARTESIAN_POINT ( 'NONE',  ( 10.33081528017130779, 5.300000000000000711, 1.881488772222676742 ) ) ;
#95 = ORIENTED_EDGE ( 'NONE', *, *, #187, .F. ) ;
#96 = ORIENTED_EDGE ( 'NONE', *, *, #39, .F. ) ;
#97 = EDGE_CURVE ( 'NONE', #84, #289, #297, .T. ) ;
#98 =( GEOMETRIC_REPRESENTATION_CONTEXT ( 3 ) GLOBAL_UNCERTAINTY_ASSIGNED_CONTEXT ( ( #544 ) ) GLOBAL_UNIT_ASSIGNED_CONTEXT ( ( #218, #14, #45 ) ) REPRESENTATION_CONTEXT ( 'NONE', 'WORKASPACE' ) );
#99 = DIRECTION ( 'NONE',  ( -1.000000000000000000, -0.000000000000000000, -0.000000000000000000 ) ) ;
#100 = ORIENTED_EDGE ( 'NONE', *, *, #533, .T. ) ;
#101 = DIRECTION ( 'NONE',  ( 0.000000000000000000, 0.000000000000000000, -1.000000000000000000 ) ) ;
#102 = DIRECTION ( 'NONE',  ( 0.000000000000000000, 1.000000000000000000, -1.224646799147352714E-16 ) ) ;
#103 = ORIENTED_EDGE ( 'NONE', *, *, #377, .T. ) ;
#104 = FACE_OUTER_BOUND ( 'NONE', #414, .T. ) ;
#105 = PLANE ( 'NONE',  #548 ) ;
#106 = SURFACE_STYLE_FILL_AREA ( #51 ) ;
#107 = AXIS2_PLACEMENT_3D ( 'NONE', #189, #462, #68 ) ;
#108 = CARTESIAN_POINT ( 'NONE',  ( -1.690000000000000613, 5.300000000000000711, 1.881488772222677408 ) ) ;
#109 = VERTEX_POINT ( 'NONE', #197 ) ;
#110 = VERTEX_POINT ( 'NONE', #444 ) ;
#111 = CARTESIAN_POINT ( 'NONE',  ( 2.200000000000001066, 2.649999999999999911, 0.000000000000000000 ) ) ;
#112 = LINE ( 'NONE', #132, #291 ) ;
#113 =( NAMED_UNIT ( * ) PLANE_ANGLE_UNIT ( ) SI_UNIT ( $, .RADIAN. ) );
#114 = ORIENTED_EDGE ( 'NONE', *, *, #243, .T. ) ;
#115 = FACE_OUTER_BOUND ( 'NONE', #433, .T. ) ;
#116 = VECTOR ( 'NONE', #128, 1000.000000000000000 ) ;
#117 =( NAMED_UNIT ( * ) PLANE_ANGLE_UNIT ( ) SI_UNIT ( $, .RADIAN. ) );
#118 = CYLINDRICAL_SURFACE ( 'NONE', #358, 3.250000000000000444 ) ;
#119 = EDGE_LOOP ( 'NONE', ( #426, #234, #52, #38 ) ) ;
#120 = VECTOR ( 'NONE', #367, 1000.000000000000000 ) ;
#121 = ORIENTED_EDGE ( 'NONE', *, *, #363, .F. ) ;
#122 = LINE ( 'NONE', #273, #127 ) ;
#123 = LINE ( 'NONE', #75, #484 ) ;
#124 = FACE_OUTER_BOUND ( 'NONE', #267, .T. ) ;
#125 = AXIS2_PLACEMENT_3D ( 'NONE', #215, #353, #182 ) ;
#126 = LINE ( 'NONE', #379, #487 ) ;
#127 = VECTOR ( 'NONE', #494, 1000.000000000000000 ) ;
#128 = DIRECTION ( 'NONE',  ( 1.000000000000000000, 0.000000000000000000, 0.000000000000000000 ) ) ;
#129 = VECTOR ( 'NONE', #506, 1000.000000000000000 ) ;
#130 = STYLED_ITEM ( 'NONE', ( #542 ), #415 ) ;
#131 = LINE ( 'NONE', #30, #323 ) ;
#132 = CARTESIAN_POINT ( 'NONE',  ( 10.33081528017130779, 2.032649487407831660E-16, -1.881488772222678740 ) ) ;
#133 = VECTOR ( 'NONE', #88, 1000.000000000000000 ) ;
#134 = LINE ( 'NONE', #389, #308 ) ;
#135 = CARTESIAN_POINT ( 'NONE',  ( -2.200000000000000178, 8.673617379884035472E-16, 2.649999999999999911 ) ) ;
#136 = UNCERTAINTY_MEASURE_WITH_UNIT (LENGTH_MEASURE( 1.000000000000000082E-05 ), #465, 'distance_accuracy_value', 'NONE');
#137 = FACE_OUTER_BOUND ( 'NONE', #247, .T. ) ;
#138 = FACE_OUTER_BOUND ( 'NONE', #424, .T. ) ;
#139 = CIRCLE ( 'NONE', #208, 2.649999999999999911 ) ;
#140 = EDGE_CURVE ( 'NONE', #79, #67, #476, .T. ) ;
#141 = AXIS2_PLACEMENT_3D ( 'NONE', #270, #469, #532 ) ;
#142 = VECTOR ( 'NONE', #32, 1000.000000000000000 ) ;
#143 = FACE_OUTER_BOUND ( 'NONE', #83, .T. ) ;
#144 = EDGE_LOOP ( 'NONE', ( #421, #250, #445, #76 ) ) ;
#145 = CIRCLE ( 'NONE', #390, 2.649999999999999911 ) ;
#146 = DIRECTION ( 'NONE',  ( 0.000000000000000000, 0.000000000000000000, -1.000000000000000000 ) ) ;
#147 = CIRCLE ( 'NONE', #254, 3.250000000000000444 ) ;
#148 = LINE ( 'NONE', #226, #497 ) ;
#149 = DIRECTION ( 'NONE',  ( 0.000000000000000000, -1.636531581110195409E-16, -1.000000000000000000 ) ) ;
#150 = CIRCLE ( 'NONE', #40, 3.250000000000000444 ) ;
#151 = AXIS2_PLACEMENT_3D ( 'NONE', #394, #432, #489 ) ;
#152 = COLOUR_RGB ( '',0.7921568627450980005, 0.8196078431372548767, 0.9333333333333333481 ) ;
#153 = CARTESIAN_POINT ( 'NONE',  ( 2.200000000000001066, 2.650000000000000355, -2.649999999999999911 ) ) ;
#154 = LINE ( 'NONE', #153, #344 ) ;
#155 = ADVANCED_FACE ( 'NONE', ( #104 ), #105, .F. ) ;
#156 = DIRECTION ( 'NONE',  ( 0.000000000000000000, 0.000000000000000000, -1.000000000000000000 ) ) ;
#157 = CYLINDRICAL_SURFACE ( 'NONE', #173, 2.649999999999999911 ) ;
#158 = CARTESIAN_POINT ( 'NONE',  ( 10.33081528017130779, 2.649999999999999911, 0.000000000000000000 ) ) ;
#159 = FACE_OUTER_BOUND ( 'NONE', #272, .T. ) ;
#160 = CARTESIAN_POINT ( 'NONE',  ( -1.690000000000000613, 0.7685112277773215039, -2.649999999999999911 ) ) ;
#161 = CARTESIAN_POINT ( 'NONE',  ( -2.200000000000000178, 4.531488772222678207, 2.649999999999999911 ) ) ;
#162 = MANIFOLD_SOLID_BREP ( 'Revolve1', #319 ) ;
#163 = EDGE_CURVE ( 'NONE', #84, #69, #503, .T. ) ;
#164 = FACE_OUTER_BOUND ( 'NONE', #241, .T. ) ;
#165 = DIRECTION ( 'NONE',  ( 0.000000000000000000, 1.224646799147352714E-16, 1.000000000000000000 ) ) ;
#166 = LINE ( 'NONE', #94, #519 ) ;
#167 = VECTOR ( 'NONE', #63, 1000.000000000000000 ) ;
#168 = FILL_AREA_STYLE_COLOUR ( '', #470 ) ;
#169 = CARTESIAN_POINT ( 'NONE',  ( 2.200000000000001066, 2.649999999999999911, 0.000000000000000000 ) ) ;
#170 = COLOUR_RGB ( '',0.7921568627450980005, 0.8196078431372548767, 0.9333333333333333481 ) ;
#171 = CARTESIAN_POINT ( 'NONE',  ( -2.200000000000000178, 5.300000000000000711, -1.881488772222677852 ) ) ;
#172 = EDGE_CURVE ( 'NONE', #69, #84, #304, .T. ) ;
#173 = AXIS2_PLACEMENT_3D ( 'NONE', #352, #459, #512 ) ;
#174 =( NAMED_UNIT ( * ) SI_UNIT ( $, .STERADIAN. ) SOLID_ANGLE_UNIT ( ) );
#175 = SURFACE_STYLE_USAGE ( .BOTH. , #239 ) ;
#176 = AXIS2_PLACEMENT_3D ( 'NONE', #362, #480, #1 ) ;
#177 = SURFACE_STYLE_FILL_AREA ( #511 ) ;
#178 = FILL_AREA_STYLE_COLOUR ( '', #152 ) ;
#179 = PRODUCT_CONTEXT ( 'NONE', #296, 'mechanical' ) ;
#180 = CARTESIAN_POINT ( 'NONE',  ( 1.870000000000000551, 2.649999999999999911, 2.649999999999999911 ) ) ;
#181 = UNCERTAINTY_MEASURE_WITH_UNIT (LENGTH_MEASURE( 1.000000000000000082E-05 ), #204, 'distance_accuracy_value', 'NONE');
#182 = DIRECTION ( 'NONE',  ( 0.000000000000000000, 0.000000000000000000, 1.000000000000000000 ) ) ;
#183 = CARTESIAN_POINT ( 'NONE',  ( 10.33081528017130779, 6.640967892476204305E-16, 1.881488772222679184 ) ) ;
#184 = APPLICATION_CONTEXT ( 'automotive_design' ) ;
#185 = CARTESIAN_POINT ( 'NONE',  ( 1.870000000000000329, 2.649999999999999911, 0.000000000000000000 ) ) ;
#186 = DIRECTION ( 'NONE',  ( -0.000000000000000000, -1.000000000000000000, -0.000000000000000000 ) ) ;
#187 = EDGE_CURVE ( 'NONE', #450, #460, #148, .T. ) ;
#188 = DIRECTION ( 'NONE',  ( 0.000000000000000000, 0.000000000000000000, 1.000000000000000000 ) ) ;
#189 = CARTESIAN_POINT ( 'NONE',  ( -2.200000000000000178, 5.300000000000000711, 2.649999999999999911 ) ) ;
#190 = DIRECTION ( 'NONE',  ( -1.000000000000000000, -0.000000000000000000, -0.000000000000000000 ) ) ;
#191 = DIRECTION ( 'NONE',  ( 0.000000000000000000, 0.000000000000000000, 1.000000000000000000 ) ) ;
#192 = ADVANCED_FACE ( 'NONE', ( #496 ), #315, .T. ) ;
#193 = EDGE_CURVE ( 'NONE', #67, #110, #147, .T. ) ;
#194 = AXIS2_PLACEMENT_3D ( 'NONE', #428, #227, #396 ) ;
#195 = DIRECTION ( 'NONE',  ( 1.000000000000000000, 0.000000000000000000, 0.000000000000000000 ) ) ;
#196 = DIRECTION ( 'NONE',  ( 0.000000000000000000, 0.000000000000000000, 1.000000000000000000 ) ) ;
#197 = CARTESIAN_POINT ( 'NONE',  ( -1.690000000000000613, 4.531488772222678207, 2.649999999999999911 ) ) ;
#198 = EDGE_CURVE ( 'NONE', #67, #109, #313, .T. ) ;
#199 = CARTESIAN_POINT ( 'NONE',  ( -2.200000000000000178, 0.7685112277773215039, 2.649999999999999911 ) ) ;
#200 = SURFACE_STYLE_USAGE ( .BOTH. , #18 ) ;
#201 = SURFACE_STYLE_USAGE ( .BOTH. , #402 ) ;
#202 = MECHANICAL_DESIGN_GEOMETRIC_PRESENTATION_REPRESENTATION (  '', ( #332 ), #407 ) ;
#203 = CARTESIAN_POINT ( 'NONE',  ( -2.200000000000000178, 4.531488772222678207, -2.649999999999999911 ) ) ;
#204 =( LENGTH_UNIT ( ) NAMED_UNIT ( * ) SI_UNIT ( .MILLI., .METRE. ) );
#205 =( GEOMETRIC_REPRESENTATION_CONTEXT ( 3 ) GLOBAL_UNCERTAINTY_ASSIGNED_CONTEXT ( ( #86 ) ) GLOBAL_UNIT_ASSIGNED_CONTEXT ( ( #58, #113, #546 ) ) REPRESENTATION_CONTEXT ( 'NONE', 'WORKASPACE' ) );
#206 = EDGE_CURVE ( 'NONE', #262, #230, #492, .T. ) ;
#207 = FILL_AREA_STYLE ('',( #178 ) ) ;
#208 = AXIS2_PLACEMENT_3D ( 'NONE', #17, #43, #101 ) ;
#209 = DIRECTION ( 'NONE',  ( -1.000000000000000000, -0.000000000000000000, -0.000000000000000000 ) ) ;
#210 = DIRECTION ( 'NONE',  ( -1.000000000000000000, -0.000000000000000000, -0.000000000000000000 ) ) ;
#211 = EDGE_CURVE ( 'NONE', #257, #450, #318, .T. ) ;
#212 = DIRECTION ( 'NONE',  ( 0.000000000000000000, 0.000000000000000000, 1.000000000000000000 ) ) ;
#213 = DIRECTION ( 'NONE',  ( 0.000000000000000000, -1.636531581110195409E-16, -1.000000000000000000 ) ) ;
#214 = AXIS2_PLACEMENT_3D ( 'NONE', #158, #46, #56 ) ;
#215 = CARTESIAN_POINT ( 'NONE',  ( -1.690000000000000613, 2.649999999999999911, 0.000000000000000000 ) ) ;
#216 = ADVANCED_FACE ( 'NONE', ( #124 ), #397, .F. ) ;
#217 = CARTESIAN_POINT ( 'NONE',  ( -2.200000000000000178, 2.649999999999999911, 0.000000000000000000 ) ) ;
#218 =( LENGTH_UNIT ( ) NAMED_UNIT ( * ) SI_UNIT ( .MILLI., .METRE. ) );
#219 = EDGE_CURVE ( 'NONE', #431, #289, #139, .T. ) ;
#220 = MECHANICAL_DESIGN_GEOMETRIC_PRESENTATION_REPRESENTATION (  '', ( #244 ), #98 ) ;
#221 = CARTESIAN_POINT ( 'NONE',  ( -2.200000000000000178, 8.673617379884035472E-16, 2.649999999999999911 ) ) ;
#222 = CARTESIAN_POINT ( 'NONE',  ( 1.870000000000000329, 2.650000000000000355, -2.649999999999999911 ) ) ;
#223 = CARTESIAN_POINT ( 'NONE',  ( 2.200000000000001066, 2.649999999999999911, 2.649999999999999911 ) ) ;
#224 = CARTESIAN_POINT ( 'NONE',  ( -1.690000000000000391, 2.649999999999999911, 0.000000000000000000 ) ) ;
#225 = EDGE_CURVE ( 'NONE', #483, #37, #122, .T. ) ;
#226 = CARTESIAN_POINT ( 'NONE',  ( -1.690000000000000613, 2.650000000000000355, -2.649999999999999911 ) ) ;
#227 = DIRECTION ( 'NONE',  ( -1.000000000000000000, -0.000000000000000000, -0.000000000000000000 ) ) ;
#228 = ORIENTED_EDGE ( 'NONE', *, *, #44, .T. ) ;
#229 = CARTESIAN_POINT ( 'NONE',  ( 10.33081528017130779, 2.649999999999999911, 0.000000000000000000 ) ) ;
#230 = VERTEX_POINT ( 'NONE', #536 ) ;
#231 = UNCERTAINTY_MEASURE_WITH_UNIT (LENGTH_MEASURE( 1.000000000000000082E-05 ), #278, 'distance_accuracy_value', 'NONE');
#232 = DIRECTION ( 'NONE',  ( 1.000000000000000000, 0.000000000000000000, 0.000000000000000000 ) ) ;
#233 = CARTESIAN_POINT ( 'NONE',  ( 0.000000000000000000, 0.000000000000000000, 0.000000000000000000 ) ) ;
#234 = ORIENTED_EDGE ( 'NONE', *, *, #163, .F. ) ;
#235 = SURFACE_SIDE_STYLE ('',( #340 ) ) ;
#236 = EDGE_CURVE ( 'NONE', #89, #230, #498, .T. ) ;
#237 = PRODUCT_RELATED_PRODUCT_CATEGORY ( 'part', '', ( #477 ) ) ;
#238 = ORIENTED_EDGE ( 'NONE', *, *, #206, .T. ) ;
#239 = SURFACE_SIDE_STYLE ('',( #177 ) ) ;
#240 = EDGE_LOOP ( 'NONE', ( #274, #61 ) ) ;
#241 = EDGE_LOOP ( 'NONE', ( #103, #74, #276, #324 ) ) ;
#242 = ORIENTED_EDGE ( 'NONE', *, *, #163, .T. ) ;
#243 = EDGE_CURVE ( 'NONE', #37, #466, #131, .T. ) ;
#244 = STYLED_ITEM ( 'NONE', ( #347 ), #488 ) ;
#245 = ORIENTED_EDGE ( 'NONE', *, *, #478, .T. ) ;
#246 = EDGE_LOOP ( 'NONE', ( #463, #50, #96, #53 ) ) ;
#247 = EDGE_LOOP ( 'NONE', ( #420, #282, #309, #73, #59, #472, #121, #437 ) ) ;
#248 = ORIENTED_EDGE ( 'NONE', *, *, #306, .T. ) ;
#249 = ORIENTED_EDGE ( 'NONE', *, *, #243, .F. ) ;
#250 = ORIENTED_EDGE ( 'NONE', *, *, #23, .T. ) ;
#251 = VERTEX_POINT ( 'NONE', #27 ) ;
#252 = ADVANCED_FACE ( 'NONE', ( #302 ), #384, .F. ) ;
#253 = CARTESIAN_POINT ( 'NONE',  ( -1.690000000000000391, 8.673617379884035472E-16, 2.649999999999999911 ) ) ;
#254 = AXIS2_PLACEMENT_3D ( 'NONE', #337, #374, #285 ) ;
#255 = ORIENTED_EDGE ( 'NONE', *, *, #370, .F. ) ;
#256 = DIRECTION ( 'NONE',  ( -1.000000000000000000, 0.000000000000000000, 0.000000000000000000 ) ) ;
#257 = VERTEX_POINT ( 'NONE', #180 ) ;
#258 = ORIENTED_EDGE ( 'NONE', *, *, #271, .T. ) ;
#259 = ORIENTED_EDGE ( 'NONE', *, *, #4, .T. ) ;
#260 = DIRECTION ( 'NONE',  ( 0.000000000000000000, 0.000000000000000000, 1.000000000000000000 ) ) ;
#261 = ORIENTED_EDGE ( 'NONE', *, *, #60, .T. ) ;
#262 = VERTEX_POINT ( 'NONE', #355 ) ;
#263 = ORIENTED_EDGE ( 'NONE', *, *, #60, .F. ) ;
#264 = ORIENTED_EDGE ( 'NONE', *, *, #225, .T. ) ;
#265 = CARTESIAN_POINT ( 'NONE',  ( 10.33081528017130779, 2.649999999999999911, 0.000000000000000000 ) ) ;
#266 = ORIENTED_EDGE ( 'NONE', *, *, #236, .F. ) ;
#267 = EDGE_LOOP ( 'NONE', ( #301, #65, #249, #443 ) ) ;
#268 = VERTEX_POINT ( 'NONE', #509 ) ;
#269 = DIRECTION ( 'NONE',  ( 0.000000000000000000, 0.000000000000000000, -1.000000000000000000 ) ) ;
#270 = CARTESIAN_POINT ( 'NONE',  ( -1.690000000000000613, 2.649999999999999911, 0.000000000000000000 ) ) ;
#271 = EDGE_CURVE ( 'NONE', #461, #251, #500, .T. ) ;
#272 = EDGE_LOOP ( 'NONE', ( #242, #42 ) ) ;
#273 = CARTESIAN_POINT ( 'NONE',  ( -2.200000000000000178, 2.182989344403066506E-16, -2.649999999999999911 ) ) ;
#274 = ORIENTED_EDGE ( 'NONE', *, *, #39, .T. ) ;
#275 = CARTESIAN_POINT ( 'NONE',  ( 1.870000000000000551, 2.650000000000000355, -2.649999999999999911 ) ) ;
#276 = ORIENTED_EDGE ( 'NONE', *, *, #279, .T. ) ;
#277 = DIRECTION ( 'NONE',  ( 0.000000000000000000, 1.000000000000000000, 0.000000000000000000 ) ) ;
#278 =( LENGTH_UNIT ( ) NAMED_UNIT ( * ) SI_UNIT ( .MILLI., .METRE. ) );
#279 = EDGE_CURVE ( 'NONE', #64, #251, #123, .T. ) ;
#280 =( GEOMETRIC_REPRESENTATION_CONTEXT ( 3 ) GLOBAL_UNCERTAINTY_ASSIGNED_CONTEXT ( ( #231 ) ) GLOBAL_UNIT_ASSIGNED_CONTEXT ( ( #278, #398, #441 ) ) REPRESENTATION_CONTEXT ( 'NONE', 'WORKASPACE' ) );
#281 = DIRECTION ( 'NONE',  ( 0.000000000000000000, 0.000000000000000000, 1.000000000000000000 ) ) ;
#282 = ORIENTED_EDGE ( 'NONE', *, *, #33, .F. ) ;
#283 = ORIENTED_EDGE ( 'NONE', *, *, #455, .T. ) ;
#284 = ORIENTED_EDGE ( 'NONE', *, *, #10, .F. ) ;
#285 = DIRECTION ( 'NONE',  ( 0.000000000000000000, 0.000000000000000000, 1.000000000000000000 ) ) ;
#286 = APPLICATION_PROTOCOL_DEFINITION ( 'draft international standard', 'automotive_design', 1998, #296 ) ;
#287 = CLOSED_SHELL ( 'NONE', ( #392, #523, #419, #155 ) ) ;
#288 = DIRECTION ( 'NONE',  ( -1.000000000000000000, 0.000000000000000000, -0.000000000000000000 ) ) ;
#289 = VERTEX_POINT ( 'NONE', #413 ) ;
#290 = VECTOR ( 'NONE', #277, 1000.000000000000000 ) ;
#291 = VECTOR ( 'NONE', #209, 1000.000000000000000 ) ;
#292 = CIRCLE ( 'NONE', #439, 2.649999999999999911 ) ;
#293 = DIRECTION ( 'NONE',  ( 0.000000000000000000, 0.000000000000000000, 1.000000000000000000 ) ) ;
#294 = AXIS2_PLACEMENT_3D ( 'NONE', #547, #29, #293 ) ;
#295 = CIRCLE ( 'NONE', #510, 3.250000000000000444 ) ;
#296 = APPLICATION_CONTEXT ( 'automotive_design' ) ;
#297 = LINE ( 'NONE', #223, #507 ) ;
#298 = ORIENTED_EDGE ( 'NONE', *, *, #349, .F. ) ;
#299 = PRODUCT_DEFINITION ( 'UNKNOWN', '', #380, #527 ) ;
#300 = DIRECTION ( 'NONE',  ( -1.000000000000000000, 0.000000000000000000, -0.000000000000000000 ) ) ;
#301 = ORIENTED_EDGE ( 'NONE', *, *, #377, .F. ) ;
#302 = FACE_OUTER_BOUND ( 'NONE', #447, .T. ) ;
#303 = LINE ( 'NONE', #82, #499 ) ;
#304 = CIRCLE ( 'NONE', #403, 2.649999999999999911 ) ;
#305 = CIRCLE ( 'NONE', #125, 3.250000000000000444 ) ;
#306 = EDGE_CURVE ( 'NONE', #110, #64, #134, .T. ) ;
#307 = DIRECTION ( 'NONE',  ( 0.000000000000000000, 0.000000000000000000, -1.000000000000000000 ) ) ;
#308 = VECTOR ( 'NONE', #149, 1000.000000000000000 ) ;
#309 = ORIENTED_EDGE ( 'NONE', *, *, #395, .T. ) ;
#310 = CARTESIAN_POINT ( 'NONE',  ( -1.690000000000000169, 2.649999999999999911, 0.000000000000000000 ) ) ;
#311 = CIRCLE ( 'NONE', #539, 3.250000000000000444 ) ;
#312 = PLANE ( 'NONE',  #70 ) ;
#313 = LINE ( 'NONE', #449, #129 ) ;
#314 = FACE_OUTER_BOUND ( 'NONE', #77, .T. ) ;
#315 = CYLINDRICAL_SURFACE ( 'NONE', #491, 3.250000000000000444 ) ;
#316 = AXIS2_PLACEMENT_3D ( 'NONE', #135, #307, #288 ) ;
#317 = PLANE ( 'NONE',  #6 ) ;
#318 = CIRCLE ( 'NONE', #28, 2.649999999999999911 ) ;
#319 = CLOSED_SHELL ( 'NONE', ( #474, #425, #364, #9 ) ) ;
#320 = PLANE ( 'NONE',  #176 ) ;
#321 = CYLINDRICAL_SURFACE ( 'NONE', #214, 3.250000000000000444 ) ;
#322 = CARTESIAN_POINT ( 'NONE',  ( 1.870000000000000551, 2.649999999999999911, 0.000000000000000000 ) ) ;
#323 = VECTOR ( 'NONE', #3, 1000.000000000000000 ) ;
#324 = ORIENTED_EDGE ( 'NONE', *, *, #363, .T. ) ;
#325 = LINE ( 'NONE', #456, #167 ) ;
#326 = CARTESIAN_POINT ( 'NONE',  ( 2.200000000000001066, 2.649999999999999911, 0.000000000000000000 ) ) ;
#327 = MECHANICAL_DESIGN_GEOMETRIC_PRESENTATION_REPRESENTATION (  '', ( #429 ), #387 ) ;
#328 = DIRECTION ( 'NONE',  ( -1.000000000000000000, -0.000000000000000000, -0.000000000000000000 ) ) ;
#329 = CYLINDRICAL_SURFACE ( 'NONE', #401, 2.649999999999999911 ) ;
#330 = DIRECTION ( 'NONE',  ( 0.000000000000000000, 0.000000000000000000, 1.000000000000000000 ) ) ;
#331 = CYLINDRICAL_SURFACE ( 'NONE', #194, 3.250000000000000444 ) ;
#332 = STYLED_ITEM ( 'NONE', ( #351 ), #378 ) ;
#333 = FACE_OUTER_BOUND ( 'NONE', #119, .T. ) ;
#334 = DIRECTION ( 'NONE',  ( 1.000000000000000000, 0.000000000000000000, 0.000000000000000000 ) ) ;
#335 = FACE_OUTER_BOUND ( 'NONE', #246, .T. ) ;
#336 = CYLINDRICAL_SURFACE ( 'NONE', #365, 2.649999999999999911 ) ;
#337 = CARTESIAN_POINT ( 'NONE',  ( -2.200000000000000178, 2.649999999999999911, 0.000000000000000000 ) ) ;
#338 = SURFACE_STYLE_FILL_AREA ( #36 ) ;
#339 = EDGE_CURVE ( 'NONE', #446, #466, #126, .T. ) ;
#340 = SURFACE_STYLE_FILL_AREA ( #207 ) ;
#341 = AXIS2_PLACEMENT_3D ( 'NONE', #47, #102, #165 ) ;
#342 = CARTESIAN_POINT ( 'NONE',  ( 1.870000000000000551, 2.649999999999999911, 0.000000000000000000 ) ) ;
#343 = FACE_OUTER_BOUND ( 'NONE', #240, .T. ) ;
#344 = VECTOR ( 'NONE', #368, 1000.000000000000000 ) ;
#345 = CIRCLE ( 'NONE', #513, 3.250000000000000444 ) ;
#346 = CARTESIAN_POINT ( 'NONE',  ( -1.690000000000000391, 5.300000000000000711, 2.649999999999999911 ) ) ;
#347 = PRESENTATION_STYLE_ASSIGNMENT (( #200 ) ) ;
#348 = CIRCLE ( 'NONE', #141, 3.250000000000000444 ) ;
#349 = EDGE_CURVE ( 'NONE', #89, #79, #311, .T. ) ;
#350 = CIRCLE ( 'NONE', #451, 2.649999999999999911 ) ;
#351 = PRESENTATION_STYLE_ASSIGNMENT (( #405 ) ) ;
#352 = CARTESIAN_POINT ( 'NONE',  ( 2.200000000000001066, 2.649999999999999911, 0.000000000000000000 ) ) ;
#353 = DIRECTION ( 'NONE',  ( -1.000000000000000000, 0.000000000000000000, -0.000000000000000000 ) ) ;
#354 = CARTESIAN_POINT ( 'NONE',  ( -1.690000000000000613, 2.649999999999999911, 0.000000000000000000 ) ) ;
#355 = CARTESIAN_POINT ( 'NONE',  ( -1.690000000000000613, 4.336808689942017736E-16, -1.881488772222678740 ) ) ;
#356 = ADVANCED_FACE ( 'NONE', ( #314 ), #409, .F. ) ;
#357 = DIRECTION ( 'NONE',  ( -1.000000000000000000, -0.000000000000000000, -0.000000000000000000 ) ) ;
#358 = AXIS2_PLACEMENT_3D ( 'NONE', #265, #210, #520 ) ;
#359 = DIRECTION ( 'NONE',  ( 0.000000000000000000, 0.000000000000000000, 1.000000000000000000 ) ) ;
#360 = ADVANCED_FACE ( 'NONE', ( #493 ), #312, .T. ) ;
#361 = CARTESIAN_POINT ( 'NONE',  ( -1.690000000000000613, 2.649999999999999911, 0.000000000000000000 ) ) ;
#362 = CARTESIAN_POINT ( 'NONE',  ( -1.690000000000000391, 0.000000000000000000, 0.000000000000000000 ) ) ;
#363 = EDGE_CURVE ( 'NONE', #251, #446, #505, .T. ) ;
#364 = ADVANCED_FACE ( 'NONE', ( #143 ), #508, .T. ) ;
#365 = AXIS2_PLACEMENT_3D ( 'NONE', #361, #391, #495 ) ;
#366 = CARTESIAN_POINT ( 'NONE',  ( 2.200000000000001066, 2.649999999999999911, 0.000000000000000000 ) ) ;
#367 = DIRECTION ( 'NONE',  ( -0.000000000000000000, 1.224646799147352714E-16, 1.000000000000000000 ) ) ;
#368 = DIRECTION ( 'NONE',  ( -1.000000000000000000, -0.000000000000000000, -0.000000000000000000 ) ) ;
#369 = CARTESIAN_POINT ( 'NONE',  ( 1.870000000000000329, 2.649999999999999911, 0.000000000000000000 ) ) ;
#370 = EDGE_CURVE ( 'NONE', #289, #431, #145, .T. ) ;
#371 = CARTESIAN_POINT ( 'NONE',  ( -1.690000000000000613, 4.531488772222678207, -2.649999999999999911 ) ) ;
#372 = DIRECTION ( 'NONE',  ( -1.000000000000000000, -0.000000000000000000, -0.000000000000000000 ) ) ;
#373 = DIRECTION ( 'NONE',  ( -1.000000000000000000, -0.000000000000000000, -0.000000000000000000 ) ) ;
#374 = DIRECTION ( 'NONE',  ( -1.000000000000000000, 0.000000000000000000, 0.000000000000000000 ) ) ;
#375 = DIRECTION ( 'NONE',  ( 0.000000000000000000, 0.000000000000000000, -1.000000000000000000 ) ) ;
#376 = DIRECTION ( 'NONE',  ( 0.000000000000000000, 0.000000000000000000, 1.000000000000000000 ) ) ;
#377 = EDGE_CURVE ( 'NONE', #446, #483, #325, .T. ) ;
#378 = MANIFOLD_SOLID_BREP ( 'Cut-Extrude1', #448 ) ;
#379 = CARTESIAN_POINT ( 'NONE',  ( -1.690000000000000391, 2.182989344403066506E-16, -2.649999999999999911 ) ) ;
#380 = PRODUCT_DEFINITION_FORMATION_WITH_SPECIFIED_SOURCE ( 'ANY', '', #477, .NOT_KNOWN. ) ;
#381 = EDGE_CURVE ( 'NONE', #460, #268, #526, .T. ) ;
#382 = AXIS2_PLACEMENT_3D ( 'NONE', #224, #91, #16 ) ;
#383 = CARTESIAN_POINT ( 'NONE',  ( -1.690000000000000613, 2.649999999999999911, 2.649999999999999911 ) ) ;
#384 = PLANE ( 'NONE',  #107 ) ;
#385 = APPLICATION_PROTOCOL_DEFINITION ( 'draft international standard', 'automotive_design', 1998, #184 ) ;
#386 = DIRECTION ( 'NONE',  ( 0.000000000000000000, 0.000000000000000000, 1.000000000000000000 ) ) ;
#387 =( GEOMETRIC_REPRESENTATION_CONTEXT ( 3 ) GLOBAL_UNCERTAINTY_ASSIGNED_CONTEXT ( ( #181 ) ) GLOBAL_UNIT_ASSIGNED_CONTEXT ( ( #204, #117, #174 ) ) REPRESENTATION_CONTEXT ( 'NONE', 'WORKASPACE' ) );
#388 = DIRECTION ( 'NONE',  ( 0.000000000000000000, 0.000000000000000000, -1.000000000000000000 ) ) ;
#389 = CARTESIAN_POINT ( 'NONE',  ( -2.200000000000000178, 5.300000000000000711, 2.649999999999999911 ) ) ;
#390 = AXIS2_PLACEMENT_3D ( 'NONE', #85, #80, #146 ) ;
#391 = DIRECTION ( 'NONE',  ( -1.000000000000000000, -0.000000000000000000, -0.000000000000000000 ) ) ;
#392 = ADVANCED_FACE ( 'NONE', ( #521 ), #157, .T. ) ;
#393 = FILL_AREA_STYLE_COLOUR ( '', #514 ) ;
#394 = CARTESIAN_POINT ( 'NONE',  ( -2.200000000000000178, 2.182989344403066506E-16, -2.649999999999999911 ) ) ;
#395 = EDGE_CURVE ( 'NONE', #481, #230, #348, .T. ) ;
#396 = DIRECTION ( 'NONE',  ( 0.000000000000000000, 0.000000000000000000, 1.000000000000000000 ) ) ;
#397 = PLANE ( 'NONE',  #151 ) ;
#398 =( NAMED_UNIT ( * ) PLANE_ANGLE_UNIT ( ) SI_UNIT ( $, .RADIAN. ) );
#399 = CARTESIAN_POINT ( 'NONE',  ( 2.200000000000001066, 2.649999999999999911, 2.649999999999999911 ) ) ;
#400 = EDGE_CURVE ( 'NONE', #461, #110, #166, .T. ) ;
#401 = AXIS2_PLACEMENT_3D ( 'NONE', #366, #99, #191 ) ;
#402 = SURFACE_SIDE_STYLE ('',( #106 ) ) ;
#403 = AXIS2_PLACEMENT_3D ( 'NONE', #326, #232, #375 ) ;
#404 = DIRECTION ( 'NONE',  ( 0.000000000000000000, 0.000000000000000000, -1.000000000000000000 ) ) ;
#405 = SURFACE_STYLE_USAGE ( .BOTH. , #235 ) ;
#406 = EDGE_LOOP ( 'NONE', ( #57, #430, #248, #245, #264, #78, #55, #66 ) ) ;
#407 =( GEOMETRIC_REPRESENTATION_CONTEXT ( 3 ) GLOBAL_UNCERTAINTY_ASSIGNED_CONTEXT ( ( #136 ) ) GLOBAL_UNIT_ASSIGNED_CONTEXT ( ( #465, #518, #34 ) ) REPRESENTATION_CONTEXT ( 'NONE', 'WORKASPACE' ) );
#408 = ORIENTED_EDGE ( 'NONE', *, *, #97, .F. ) ;
#409 = PLANE ( 'NONE',  #316 ) ;
#410 = ORIENTED_EDGE ( 'NONE', *, *, #517, .T. ) ;
#411 = DIRECTION ( 'NONE',  ( 1.000000000000000000, 0.000000000000000000, 0.000000000000000000 ) ) ;
#412 = ORIENTED_EDGE ( 'NONE', *, *, #211, .F. ) ;
#413 = CARTESIAN_POINT ( 'NONE',  ( 1.870000000000000329, 2.649999999999999911, 2.649999999999999911 ) ) ;
#414 = EDGE_LOOP ( 'NONE', ( #255, #457 ) ) ;
#415 = ADVANCED_BREP_SHAPE_REPRESENTATION ( '2031-42T-SM-RPLF', ( #162, #488, #378, #93 ), #280 ) ;
#416 = CARTESIAN_POINT ( 'NONE',  ( -1.690000000000000613, 2.649999999999999911, 0.000000000000000000 ) ) ;
#417 = ADVANCED_FACE ( 'NONE', ( #524 ), #475, .F. ) ;
#418 = DIRECTION ( 'NONE',  ( 1.000000000000000000, 0.000000000000000000, 0.000000000000000000 ) ) ;
#419 = ADVANCED_FACE ( 'NONE', ( #159 ), #317, .T. ) ;
#420 = ORIENTED_EDGE ( 'NONE', *, *, #23, .F. ) ;
#421 = ORIENTED_EDGE ( 'NONE', *, *, #198, .T. ) ;
#422 = DIRECTION ( 'NONE',  ( -1.000000000000000000, -0.000000000000000000, -0.000000000000000000 ) ) ;
#423 = ORIENTED_EDGE ( 'NONE', *, *, #400, .F. ) ;
#424 = EDGE_LOOP ( 'NONE', ( #464, #62, #259, #298 ) ) ;
#425 = ADVANCED_FACE ( 'NONE', ( #343 ), #522, .T. ) ;
#426 = ORIENTED_EDGE ( 'NONE', *, *, #517, .F. ) ;
#427 = EDGE_LOOP ( 'NONE', ( #54, #410, #458, #408 ) ) ;
#428 = CARTESIAN_POINT ( 'NONE',  ( 10.33081528017130779, 2.649999999999999911, 0.000000000000000000 ) ) ;
#429 = STYLED_ITEM ( 'NONE', ( #471 ), #162 ) ;
#430 = ORIENTED_EDGE ( 'NONE', *, *, #193, .T. ) ;
#431 = VERTEX_POINT ( 'NONE', #222 ) ;
#432 = DIRECTION ( 'NONE',  ( 0.000000000000000000, -0.000000000000000000, 1.000000000000000000 ) ) ;
#433 = EDGE_LOOP ( 'NONE', ( #412, #453 ) ) ;
#434 = ORIENTED_EDGE ( 'NONE', *, *, #140, .F. ) ;
#435 = DIRECTION ( 'NONE',  ( -1.000000000000000000, 0.000000000000000000, -0.000000000000000000 ) ) ;
#436 = ORIENTED_EDGE ( 'NONE', *, *, #279, .F. ) ;
#437 = ORIENTED_EDGE ( 'NONE', *, *, #271, .F. ) ;
#438 = ORIENTED_EDGE ( 'NONE', *, *, #381, .F. ) ;
#439 = AXIS2_PLACEMENT_3D ( 'NONE', #310, #190, #260 ) ;
#440 = ORIENTED_EDGE ( 'NONE', *, *, #306, .F. ) ;
#441 =( NAMED_UNIT ( * ) SI_UNIT ( $, .STERADIAN. ) SOLID_ANGLE_UNIT ( ) );
#442 = EDGE_LOOP ( 'NONE', ( #263, #238, #266, #49 ) ) ;
#443 = ORIENTED_EDGE ( 'NONE', *, *, #225, .F. ) ;
#444 = CARTESIAN_POINT ( 'NONE',  ( -2.200000000000000178, 5.300000000000000711, 1.881488772222677408 ) ) ;
#445 = ORIENTED_EDGE ( 'NONE', *, *, #400, .T. ) ;
#446 = VERTEX_POINT ( 'NONE', #371 ) ;
#447 = EDGE_LOOP ( 'NONE', ( #423, #258, #436, #440 ) ) ;
#448 = CLOSED_SHELL ( 'NONE', ( #216, #417, #356, #252, #360, #41, #92, #12, #529, #192 ) ) ;
#449 = CARTESIAN_POINT ( 'NONE',  ( 10.33081528017130779, 4.531488772222678207, 2.649999999999999911 ) ) ;
#450 = VERTEX_POINT ( 'NONE', #275 ) ;
#451 = AXIS2_PLACEMENT_3D ( 'NONE', #322, #422, #21 ) ;
#452 = DIRECTION ( 'NONE',  ( -1.000000000000000000, -0.000000000000000000, -0.000000000000000000 ) ) ;
#453 = ORIENTED_EDGE ( 'NONE', *, *, #455, .F. ) ;
#454 = EDGE_LOOP ( 'NONE', ( #114, #100, #261, #284 ) ) ;
#455 = EDGE_CURVE ( 'NONE', #450, #257, #350, .T. ) ;
#456 = CARTESIAN_POINT ( 'NONE',  ( 10.33081528017130779, 4.531488772222678207, -2.649999999999999911 ) ) ;
#457 = ORIENTED_EDGE ( 'NONE', *, *, #219, .F. ) ;
#458 = ORIENTED_EDGE ( 'NONE', *, *, #219, .T. ) ;
#459 = DIRECTION ( 'NONE',  ( -1.000000000000000000, -0.000000000000000000, -0.000000000000000000 ) ) ;
#460 = VERTEX_POINT ( 'NONE', #11 ) ;
#461 = VERTEX_POINT ( 'NONE', #108 ) ;
#462 = DIRECTION ( 'NONE',  ( 0.000000000000000000, -1.000000000000000000, 1.636531581110195409E-16 ) ) ;
#463 = ORIENTED_EDGE ( 'NONE', *, *, #211, .T. ) ;
#464 = ORIENTED_EDGE ( 'NONE', *, *, #236, .T. ) ;
#465 =( LENGTH_UNIT ( ) NAMED_UNIT ( * ) SI_UNIT ( .MILLI., .METRE. ) );
#466 = VERTEX_POINT ( 'NONE', #160 ) ;
#467 = AXIS2_PLACEMENT_3D ( 'NONE', #185, #195, #388 ) ;
#468 = DIRECTION ( 'NONE',  ( -1.000000000000000000, 0.000000000000000000, 0.000000000000000000 ) ) ;
#469 = DIRECTION ( 'NONE',  ( 1.000000000000000000, -0.000000000000000000, 0.000000000000000000 ) ) ;
#470 = COLOUR_RGB ( '',1.000000000000000000, 0.5019607843137254832, 0.5019607843137254832 ) ;
#471 = PRESENTATION_STYLE_ASSIGNMENT (( #201 ) ) ;
#472 = ORIENTED_EDGE ( 'NONE', *, *, #339, .F. ) ;
#473 = LINE ( 'NONE', #383, #502 ) ;
#474 = ADVANCED_FACE ( 'NONE', ( #335 ), #336, .T. ) ;
#475 = PLANE ( 'NONE',  #341 ) ;
#476 = LINE ( 'NONE', #221, #290 ) ;
#477 = PRODUCT ( '2031-42T-SM-RPLF', '2031-42T-SM-RPLF', '', ( #179 ) ) ;
#478 = EDGE_CURVE ( 'NONE', #64, #483, #150, .T. ) ;
#479 = ORIENTED_EDGE ( 'NONE', *, *, #33, .T. ) ;
#480 = DIRECTION ( 'NONE',  ( -1.000000000000000000, 0.000000000000000000, -0.000000000000000000 ) ) ;
#481 = VERTEX_POINT ( 'NONE', #538 ) ;
#482 = CARTESIAN_POINT ( 'NONE',  ( -1.690000000000000613, 2.649999999999999911, 0.000000000000000000 ) ) ;
#483 = VERTEX_POINT ( 'NONE', #203 ) ;
#484 = VECTOR ( 'NONE', #418, 1000.000000000000000 ) ;
#485 = LINE ( 'NONE', #7, #142 ) ;
#486 = ORIENTED_EDGE ( 'NONE', *, *, #4, .F. ) ;
#487 = VECTOR ( 'NONE', #186, 1000.000000000000000 ) ;
#488 = MANIFOLD_SOLID_BREP ( 'Boss-Extrude1', #287 ) ;
#489 = DIRECTION ( 'NONE',  ( 1.000000000000000000, 0.000000000000000000, -0.000000000000000000 ) ) ;
#490 = VECTOR ( 'NONE', #213, 1000.000000000000000 ) ;
#491 = AXIS2_PLACEMENT_3D ( 'NONE', #229, #22, #281 ) ;
#492 = LINE ( 'NONE', #25, #120 ) ;
#493 = FACE_OUTER_BOUND ( 'NONE', #406, .T. ) ;
#494 = DIRECTION ( 'NONE',  ( -0.000000000000000000, -1.000000000000000000, -0.000000000000000000 ) ) ;
#495 = DIRECTION ( 'NONE',  ( 0.000000000000000000, 0.000000000000000000, 1.000000000000000000 ) ) ;
#496 = FACE_OUTER_BOUND ( 'NONE', #144, .T. ) ;
#497 = VECTOR ( 'NONE', #372, 1000.000000000000000 ) ;
#498 = LINE ( 'NONE', #183, #116 ) ;
#499 = VECTOR ( 'NONE', #357, 1000.000000000000000 ) ;
#500 = LINE ( 'NONE', #346, #490 ) ;
#501 = LINE ( 'NONE', #253, #133 ) ;
#502 = VECTOR ( 'NONE', #72, 1000.000000000000000 ) ;
#503 = CIRCLE ( 'NONE', #81, 2.649999999999999911 ) ;
#504 = FACE_OUTER_BOUND ( 'NONE', #454, .T. ) ;
#505 = CIRCLE ( 'NONE', #525, 3.250000000000000444 ) ;
#506 = DIRECTION ( 'NONE',  ( 1.000000000000000000, 0.000000000000000000, 0.000000000000000000 ) ) ;
#507 = VECTOR ( 'NONE', #328, 1000.000000000000000 ) ;
#508 = CYLINDRICAL_SURFACE ( 'NONE', #48, 2.649999999999999911 ) ;
#509 = CARTESIAN_POINT ( 'NONE',  ( -1.690000000000000169, 2.649999999999999911, 2.649999999999999911 ) ) ;
#510 = AXIS2_PLACEMENT_3D ( 'NONE', #217, #468, #188 ) ;
#511 = FILL_AREA_STYLE ('',( #26 ) ) ;
#512 = DIRECTION ( 'NONE',  ( 0.000000000000000000, 0.000000000000000000, 1.000000000000000000 ) ) ;
#513 = AXIS2_PLACEMENT_3D ( 'NONE', #482, #435, #330 ) ;
#514 = COLOUR_RGB ( '',0.7921568627450980005, 0.8196078431372548767, 0.9333333333333333481 ) ;
#515 = CARTESIAN_POINT ( 'NONE',  ( -2.200000000000000178, 0.000000000000000000, 0.000000000000000000 ) ) ;
#516 = PLANE ( 'NONE',  #467 ) ;
#517 = EDGE_CURVE ( 'NONE', #69, #431, #154, .T. ) ;
#518 =( NAMED_UNIT ( * ) PLANE_ANGLE_UNIT ( ) SI_UNIT ( $, .RADIAN. ) );
#519 = VECTOR ( 'NONE', #373, 1000.000000000000000 ) ;
#520 = DIRECTION ( 'NONE',  ( 0.000000000000000000, 0.000000000000000000, 1.000000000000000000 ) ) ;
#521 = FACE_OUTER_BOUND ( 'NONE', #427, .T. ) ;
#522 = PLANE ( 'NONE',  #382 ) ;
#523 = ADVANCED_FACE ( 'NONE', ( #333 ), #329, .T. ) ;
#524 = FACE_OUTER_BOUND ( 'NONE', #442, .T. ) ;
#525 = AXIS2_PLACEMENT_3D ( 'NONE', #416, #5, #386 ) ;
#526 = CIRCLE ( 'NONE', #294, 2.649999999999999911 ) ;
#527 = PRODUCT_DEFINITION_CONTEXT ( 'detailed design', #184, 'design' ) ;
#528 = CARTESIAN_POINT ( 'NONE',  ( -2.200000000000000178, 2.649999999999999911, 0.000000000000000000 ) ) ;
#529 = ADVANCED_FACE ( 'NONE', ( #164 ), #331, .T. ) ;
#530 = DIRECTION ( 'NONE',  ( 0.000000000000000000, 0.000000000000000000, 1.000000000000000000 ) ) ;
#531 = PRODUCT_DEFINITION_SHAPE ( 'NONE', 'NONE',  #299 ) ;
#532 = DIRECTION ( 'NONE',  ( 0.000000000000000000, 0.000000000000000000, 1.000000000000000000 ) ) ;
#533 = EDGE_CURVE ( 'NONE', #466, #262, #345, .T. ) ;
#534 = DIRECTION ( 'NONE',  ( 1.000000000000000000, 0.000000000000000000, 0.000000000000000000 ) ) ;
#535 = DIRECTION ( 'NONE',  ( -1.000000000000000000, 0.000000000000000000, 0.000000000000000000 ) ) ;
#536 = CARTESIAN_POINT ( 'NONE',  ( -1.690000000000000613, 6.640967892476204305E-16, 1.881488772222679406 ) ) ;
#537 = SHAPE_DEFINITION_REPRESENTATION ( #531, #415 ) ;
#538 = CARTESIAN_POINT ( 'NONE',  ( -1.690000000000000613, 0.7685112277773215039, 2.649999999999999911 ) ) ;
#539 = AXIS2_PLACEMENT_3D ( 'NONE', #8, #256, #212 ) ;
#540 = CARTESIAN_POINT ( 'NONE',  ( -2.200000000000000178, 4.336808689942017736E-16, -1.881488772222678740 ) ) ;
#541 = CARTESIAN_POINT ( 'NONE',  ( -2.200000000000000178, 8.673617379884035472E-16, 1.881488772222679406 ) ) ;
#542 = PRESENTATION_STYLE_ASSIGNMENT (( #175 ) ) ;
#543 = PRESENTATION_LAYER_ASSIGNMENT (  '', '', ( #429 ) ) ;
#544 = UNCERTAINTY_MEASURE_WITH_UNIT (LENGTH_MEASURE( 1.000000000000000082E-05 ), #218, 'distance_accuracy_value', 'NONE');
#545 = DIRECTION ( 'NONE',  ( -0.000000000000000000, 0.000000000000000000, 1.000000000000000000 ) ) ;
#546 =( NAMED_UNIT ( * ) SI_UNIT ( $, .STERADIAN. ) SOLID_ANGLE_UNIT ( ) );
#547 = CARTESIAN_POINT ( 'NONE',  ( -1.690000000000000169, 2.649999999999999911, 0.000000000000000000 ) ) ;
#548 = AXIS2_PLACEMENT_3D ( 'NONE', #369, #15, #269 ) ;
ENDSEC;
END-ISO-10303-21;
